name ./resultDataOpenSim/trcMotMarkerGrf/sub06/grf-13-01.mot
datacolumns 19
datarows 10
range 1.10400000 1.14000000
endheader

                time	     ground_force_vx	     ground_force_vy	     ground_force_vz	     ground_force_px	     ground_force_py	     ground_force_pz	   l_ground_force_vx	   l_ground_force_vy	   l_ground_force_vz	   l_ground_force_px	   l_ground_force_py	   l_ground_force_pz	     ground_torque_x	     ground_torque_y	     ground_torque_z	   l_ground_torque_x	   l_ground_torque_y	   l_ground_torque_z	
          1.10400000	          0.00000000	          0.00000000	          0.00000000	          0.00000000	          0.00000000	          0.00000000	        101.38887636	        455.85201372	          7.10438724	          0.08624173	         -0.05000004	         -0.03742284	          0.00000000	          0.00000000	          0.00000000	          0.00000000	         -2.01627551	          0.00000000	
          1.10800000	          0.00000000	          0.00000000	          0.00000000	          0.00000000	          0.00000000	          0.00000000	        104.83429406	        449.88644518	          6.27575469	          0.08667467	         -0.05000000	         -0.03727425	          0.00000000	          0.00000000	          0.00000000	          0.00000000	         -1.97690680	          0.00000000	
          1.11200000	          0.00000000	          0.00000000	          0.00000000	          0.00000000	          0.00000000	          0.00000000	        107.93022188	        442.04378329	          5.31812101	          0.08696758	         -0.05000000	         -0.03730449	          0.00000000	          0.00000000	          0.00000000	          0.00000000	         -1.93127975	          0.00000000	
          1.11600000	          0.00000000	          0.00000000	          0.00000000	          0.00000000	          0.00000000	          0.00000000	        110.59922527	        432.23354741	          4.28071611	          0.08715965	         -0.05000000	         -0.03749810	          0.00000000	          0.00000000	          0.00000000	          0.00000000	         -1.87646667	          0.00000000	
          1.12000000	          0.00000000	          0.00000000	          0.00000000	          0.00000000	          0.00000000	          0.00000000	        112.73237633	        420.49906797	          3.23778581	          0.08737039	         -0.05000000	         -0.03778836	          0.00000000	          0.00000000	          0.00000000	          0.00000000	         -1.81072137	          0.00000000	
          1.12400000	          0.00000000	          0.00000000	          0.00000000	          0.00000000	          0.00000000	          0.00000000	        114.18665484	        406.94813586	          2.26150611	          0.08770356	         -0.04999924	         -0.03810829	          0.00000000	          0.00000000	          0.00000000	          0.00000000	         -1.73399464	          0.00000000	
          1.12800000	          0.00000000	          0.00000000	          0.00000000	          0.00000000	          0.00000000	          0.00000000	        114.79829489	        391.69665731	          1.40397713	          0.08819728	         -0.04999900	         -0.03842465	          0.00000000	          0.00000000	          0.00000000	          0.00000000	         -1.64799602	          0.00000000	
          1.13200000	          0.00000000	          0.00000000	          0.00000000	          0.00000000	          0.00000000	          0.00000000	        114.40604339	        374.85106115	          0.68043814	          0.08889019	         -0.04999900	         -0.03873467	          0.00000000	          0.00000000	          0.00000000	          0.00000000	         -1.55580869	          0.00000000	
          1.13600000	          0.00000000	          0.00000000	          0.00000000	          0.00000000	          0.00000000	          0.00000000	        112.87039469	        356.51543664	          0.07500773	          0.08984593	         -0.04999836	         -0.03905442	          0.00000000	          0.00000000	          0.00000000	          0.00000000	         -1.46120110	          0.00000000	
          1.14000000	          0.00000000	          0.00000000	          0.00000000	          0.00000000	          0.00000000	          0.00000000	        110.08698771	        336.82483302	         -0.42517353	          0.09110908	         -0.04999800	         -0.03939822	          0.00000000	          0.00000000	          0.00000000	          0.00000000	         -1.36784983	          0.00000000	
